<svg xmlns="http://www.w3.org/2000/svg" viewBox="0 0 1024 1024">
  <defs>
    <linearGradient id="bg" x1="0" y1="0" x2="1" y2="1">
      <stop offset="0" stop-color="#18242d"/>
      <stop offset="0.58" stop-color="#0b1015"/>
      <stop offset="1" stop-color="#07090c"/>
    </linearGradient>
    <linearGradient id="signal" x1="0" y1="0" x2="1" y2="1">
      <stop offset="0" stop-color="#a1f5ec"/>
      <stop offset="0.52" stop-color="#55d9e8"/>
      <stop offset="1" stop-color="#4e8eff"/>
    </linearGradient>
    <filter id="glow" x="-50%" y="-50%" width="200%" height="200%">
      <feGaussianBlur stdDeviation="22" result="blur"/>
      <feMerge><feMergeNode in="blur"/><feMergeNode in="SourceGraphic"/></feMerge>
    </filter>
  </defs>
  <rect x="48" y="48" width="928" height="928" rx="224" fill="url(#bg)" stroke="#33434e" stroke-width="18"/>
  <path d="M198 612h118l70-204 116 346 92-288 72 146h160" fill="none" stroke="#55d9e8" stroke-opacity=".2" stroke-width="58" stroke-linecap="round" stroke-linejoin="round" filter="url(#glow)"/>
  <path d="M198 612h118l70-204 116 346 92-288 72 146h160" fill="none" stroke="url(#signal)" stroke-width="30" stroke-linecap="round" stroke-linejoin="round"/>
  <path d="M326 242h250c144 0 238 70 238 184 0 80-48 142-128 168l160 188H688L546 608H466v174H326V242Zm140 112v146h104c64 0 100-27 100-73 0-47-36-73-100-73H466Z" fill="#e9f0f3" fill-opacity=".94"/>
</svg>
